<svg id="Capa_1" enable-background="new 0 0 512 512" height="512" viewBox="0 0 512 512" width="512" xmlns="http://www.w3.org/2000/svg"><g><g><path d="m361.104 261.06h-28.586c-4.267 0-7.726-3.458-7.726-7.726 0-4.267 3.458-7.726 7.726-7.726h27.608v-32.677c0-4.267 3.458-7.726 7.726-7.726s7.726 3.458 7.726 7.726v33.655c-.001 7.982-6.493 14.474-14.474 14.474z" fill="#454045"/></g><path d="m399.523 491.603c0 11.265-9.132 20.397-20.397 20.397h-246.252c-11.265 0-20.397-9.132-20.397-20.397v-101.277c0-56.588 45.874-102.461 102.461-102.461h82.124c56.588 0 102.461 45.874 102.461 102.461z" fill="#f6e266"/><path d="m399.523 390.326c0-56.588-45.874-102.461-102.461-102.461h-30.107c56.588 0 102.461 45.873 102.461 102.461v101.277c0 11.265-9.132 20.397-20.397 20.397h30.107c11.265 0 20.397-9.132 20.397-20.397z" fill="#ffd064"/><path d="m215.817 512h80.366l-40.183-190.373z" fill="#544f57"/><path d="m256 321.627-8.694 41.19 31.489 149.183h17.388z" fill="#454045"/><path d="m290.812 371.049-32.696 32.696c-1.169 1.169-3.064 1.169-4.232 0l-32.696-32.696 34.812-34.812z" fill="#afaab4"/><path d="m256 359.571 51.078-126.526h-102.156z" fill="#544f57"/><g fill="#f6f1f1"><path d="m256 359.571-34.052-84.35-22.462 18.407c-6.734 5.518-9.016 14.819-5.602 22.828l27.097 63.557c.355.833 1.069 1.461 1.941 1.707s1.808.084 2.546-.441z"/><path d="m256 359.571 34.052-84.35 22.462 18.407c6.734 5.518 9.016 14.819 5.602 22.828l-27.097 63.557c-.355.833-1.069 1.461-1.941 1.707s-1.808.084-2.546-.441z"/><path d="m368.167 413.506h-54.161c-3.082 0-5.58-2.498-5.58-5.58v-14.194c0-3.082 2.498-5.58 5.58-5.58h54.161c3.082 0 5.58 2.498 5.58 5.58v14.194c0 3.082-2.498 5.58-5.58 5.58z"/></g><path d="m313.647 29.52c-1.024-.091-1.932-.693-2.414-1.601s-.474-1.998.025-2.897l5.104-9.203c4.944-8.915-4.287-19.001-13.604-14.863l-49.495 21.984c-9.388 4.17-19.546 6.324-29.819 6.324h-19.619c-33.823 0-61.242 27.419-61.242 61.242v98.042h226.834v-98.041c0-31.977-24.512-58.218-55.77-60.987z" fill="#544f57"/><path d="m313.646 29.52c-1.024-.091-1.932-.693-2.414-1.601s-.474-1.998.025-2.897l5.104-9.203c4.944-8.915-4.287-19.001-13.604-14.863l-8.714 3.871c2.033 3.05 2.555 7.13.413 10.992l-.045.081c-3.357 6.053.039 13.525 6.754 15.203 26.624 6.651 46.347 30.72 46.347 59.404v98.042h21.905v-98.042c0-31.977-24.512-58.218-55.771-60.987z" fill="#454045"/><path d="m166.055 215.776h-7.628c-11.554 0-20.921-9.366-20.921-20.921v-4.34c0-11.554 9.366-20.921 20.921-20.921h7.628z" fill="#e2a770"/><path d="m345.945 224.191h12.722c14.896 0 26.972-12.076 26.972-26.972v-9.067c0-14.896-12.076-26.972-26.972-26.972h-12.722z" fill="#f6e266"/><path d="m358.667 161.18h-12.722v.3c12.987 1.943 22.947 13.143 22.947 26.671v9.067c0 13.528-9.96 24.728-22.947 26.672v.3h12.722c14.896 0 26.972-12.075 26.972-26.971v-9.067c0-14.896-12.076-26.972-26.972-26.972z" fill="#ffd064"/><path d="m348.005 211.656c0 50.813-41.192 92.005-92.005 92.005-50.813 0-92.005-41.192-92.005-92.005v-79.601c0-.823.45-1.581 1.172-1.975.723-.394 1.602-.36 2.294.085 59.025 37.959 118.051 37.959 177.076 0 .692-.445 1.572-.477 2.294-.083s1.173 1.15 1.173 1.973z" fill="#f1d0a5"/><path d="m327.13 140.254c-53.223 27.498-106.445 24.138-159.668-10.089-.692-.445-1.572-.477-2.294-.083s-1.173 1.15-1.173 1.973v13.343c48.552 32.446 97.104 39.205 145.656 20.283 8.401-3.274 17.479 2.814 17.479 11.83v34.145c0 47.283-35.67 86.229-81.567 91.412 3.426.387 6.908.593 10.438.593 50.813 0 92.005-41.192 92.005-92.005v-79.601c0-.822-.449-1.579-1.17-1.974-.722-.395-1.602-.365-2.294.08-5.842 3.752-11.732 7.158-17.412 10.093z" fill="#f1b986"/><g><path d="m297.87 217.371c-4.267 0-7.726-3.458-7.726-7.726v-9.342c0-4.267 3.458-7.726 7.726-7.726s7.726 3.458 7.726 7.726v9.342c0 4.268-3.459 7.726-7.726 7.726z" fill="#454045"/></g><g><path d="m214.13 217.371c-4.267 0-7.726-3.458-7.726-7.726v-9.342c0-4.267 3.458-7.726 7.726-7.726 4.267 0 7.726 3.458 7.726 7.726v9.342c0 4.268-3.459 7.726-7.726 7.726z" fill="#454045"/></g><g><path d="m256.001 261.105c-7.422 0-14.844-2.738-22.06-8.214-3.398-2.579-4.063-7.426-1.484-10.825 2.58-3.398 7.424-4.062 10.825-1.484 8.798 6.677 16.642 6.675 25.436 0 3.399-2.58 8.246-1.915 10.825 1.484s1.915 8.245-1.484 10.825c-7.216 5.476-14.637 8.214-22.058 8.214z" fill="#da4a54"/></g><path d="m332.371 265.123h-26.869c-5.77 0-10.448-4.678-10.448-10.448v-3.36c0-5.77 4.678-10.448 10.448-10.448h26.869c5.77 0 10.448 4.678 10.448 10.448v3.36c0 5.77-4.678 10.448-10.448 10.448z" fill="#544f57"/></g></svg>