<svg id="Capa_1" enable-background="new 0 0 512 512" height="512" viewBox="0 0 512 512" width="512" xmlns="http://www.w3.org/2000/svg"><g><g><path d="m476 512h-320c-8.284 0-15-6.716-15-15v-420c0-8.284 6.716-15 15-15h320c8.284 0 15 6.716 15 15v420c0 8.284-6.716 15-15 15z" fill="#7dd5f4"/></g><g><path d="m476 62h-160v450h160c8.284 0 15-6.716 15-15v-420c0-8.284-6.716-15-15-15z" fill="#6ba7ff"/></g><g><path d="m171 92h290v390h-290z" fill="#f4f4f6"/></g><g><path d="m316 92h145v390h-145z" fill="#e7f1f9"/></g><g><g><path d="m316 339.5c-19.419 0-33.347-2.634-43.832-8.291-10.271-5.541-22.514-17.042-22.514-40.363 0-36.583 29.763-66.346 66.346-66.346s66.346 29.763 66.346 66.346c0 23.321-12.244 34.822-22.515 40.363-10.484 5.657-24.412 8.291-43.831 8.291z" fill="#c18678"/><path d="m246 251.5c-20.677 0-37.5-16.823-37.5-37.5s16.823-37.5 37.5-37.5 37.5 16.823 37.5 37.5-16.822 37.5-37.5 37.5z" fill="#a55c4f"/><path d="m316 224.5c-20.677 0-37.5-16.823-37.5-37.5s16.823-37.5 37.5-37.5 37.5 16.823 37.5 37.5-16.822 37.5-37.5 37.5z" fill="#a55c4f"/><path d="m348.5 214c0-20.677 16.823-37.5 37.5-37.5s37.5 16.823 37.5 37.5-16.823 37.5-37.5 37.5-37.5-16.823-37.5-37.5z" fill="#784033"/></g><g><path d="m359.832 331.209c10.271-5.541 22.514-17.042 22.514-40.363 0-36.583-29.763-66.346-66.346-66.346v115c19.419 0 33.347-2.634 43.832-8.291z" fill="#a55c4f"/><path d="m353.5 187c0-20.677-16.823-37.5-37.5-37.5v75c20.678 0 37.5-16.823 37.5-37.5z" fill="#784033"/></g></g><g><path d="m396 397h-160c-8.284 0-15-6.716-15-15s6.716-15 15-15h160c8.284 0 15 6.716 15 15s-6.716 15-15 15z" fill="#0a617d"/></g><g><path d="m396 454.5h-160c-8.284 0-15-6.716-15-15s6.716-15 15-15h160c8.284 0 15 6.716 15 15s-6.716 15-15 15z" fill="#0a617d"/></g><g><path d="m396 122h-160c-8.284 0-15-6.716-15-15v-52c0-8.284 6.716-15 15-15h27.079c6.545-23.061 27.791-40 52.921-40s46.376 16.939 52.921 40h27.079c8.284 0 15 6.716 15 15v52c0 8.284-6.716 15-15 15zm-25-67h.01z" fill="#ffdd54"/></g><g><path d="m76 172h-40c-4.619 0-8.98-2.128-11.823-5.769s-3.85-8.389-2.729-12.869l20-80c1.669-6.677 7.669-11.362 14.552-11.362s12.883 4.685 14.552 11.362l20 80c1.121 4.48.114 9.229-2.729 12.869s-7.204 5.769-11.823 5.769z" fill="#ffd2b7"/></g><g><path d="m90.552 153.362-20-80c-1.669-6.677-7.669-11.362-14.552-11.362v110h20c4.619 0 8.98-2.128 11.823-5.769s3.85-8.388 2.729-12.869z" fill="#fabe9e"/></g><path d="m21 157v280c0 8.284 6.716 15 15 15h40c8.284 0 15-6.716 15-15v-280" fill="#ffdd54"/><g><path d="m56 157v295h20c8.284 0 15-6.716 15-15v-280z" fill="#ffa07a"/></g><path d="m21 437v40c0 19.33 15.67 35 35 35 19.33 0 35-15.67 35-35v-40z" fill="#ff6378"/><g><path d="m56 437v75c19.33 0 35-15.67 35-35v-40z" fill="#e20059"/></g><g><g><path d="m396 397c8.284 0 15-6.716 15-15s-6.716-15-15-15h-80v30z" fill="#08475e"/><path d="m396 454.5c8.284 0 15-6.716 15-15s-6.716-15-15-15h-80v30z" fill="#08475e"/><path d="m411 107v-52c0-8.284-6.716-15-15-15h-27.079c-6.545-23.061-27.791-40-52.921-40v122h80c8.284 0 15-6.716 15-15zm-40-52h.01z" fill="#ffa07a"/></g></g></g></svg>