<svg height="512" viewBox="0 0 128 128" width="512" xmlns="http://www.w3.org/2000/svg"><g><path d="m74 55.944a36.125 36.125 0 1 0 -40.125 35.9v10.856h-7.623v8h7.625v7.489h8v-7.489h7.623v-8h-7.623v-10.857a36.174 36.174 0 0 0 32.123-35.899zm-64.25 0a28.125 28.125 0 1 1 28.127 28.125 28.156 28.156 0 0 1 -28.125-28.125z" fill="#ff7cb9"/><g fill="#979fef"><path d="m108.237 9.808 6.177 6.177-11.761 11.761a36.01 36.01 0 0 0 -43.659-1.084 36.4 36.4 0 0 1 6.073 5.538 28.124 28.124 0 1 1 0 47.489 36.439 36.439 0 0 1 -6.073 5.537 36.1 36.1 0 0 0 49.317-51.826l11.76-11.761 6.177 6.177v-18.008z"/><path d="m52.921 32.2a36.021 36.021 0 0 0 0 47.489 28.325 28.325 0 0 0 6.073-5.2 28.046 28.046 0 0 1 0-37.091 28.3 28.3 0 0 0 -6.073-5.198z"/></g></g></svg>