<svg id="Layer_1" enable-background="new 0 0 480 480" height="512" viewBox="0 0 480 480" width="512" xmlns="http://www.w3.org/2000/svg"><path d="m346.86 140.25c-.514-5.134-5.423-8.302-10.13-6.99-21.11 5.9-36.02 8.2-38.77 8.32-43.153 1.958-54.369-19.599-95.01-29.36-36.399-8.728-70.348 18.937-70.12 55.57.076 12.366.25 24.915.25 42.34 0 59 48 107 107 107s107-48 107-107c0-70.419.092-66.453-.22-69.88zm-106.78 118.559c-5.123 2.925-12.981 5.974-22.574 5.068-21.685-2.05-31.283-22.202-31.682-23.059-2.619-5.64 1.941-11.99 8.102-11.325 15.276 1.618 15.466-9.853 28.164-13.208 5.582-1.475 11.615-.768 17.99 2.104 6.374-2.87 12.407-3.58 17.991-2.104 12.828 3.39 12.756 14.833 28.163 13.208 6.194-.655 10.711 5.706 8.102 11.325-.398.856-9.997 21.009-31.682 23.059m109.426-156.377c0 80.137.015 75.33-.032 76.396-.255 5.784-8.966 5.492-8.964-.298.018-43.042.062-42.02-.395-45.678-1.794-14.362-16.051-24.032-30.26-20.07-18.71 5.23-32.34 7.49-35.36 7.76-38.171 1.56-47.116-18.562-90.39-28.95-46.425-11.126-90.14 24.093-89.85 71.22.032 5.199.08 10.227.125 15.679.047 5.734-8.591 6.064-8.843.335-.049-1.117-.031-77.397-.031-76.394 0-59.371 48.129-107.5 107.5-107.5h49c59.371 0 107.5 48.129 107.5 107.5zm-159.042 222.629c-3.816-.859-6.49 3.66-3.873 6.567l24.765 27.514c3.21 3.57 8.83 3.52 11.98-.11l23.589-27.123c2.527-2.906-.102-7.327-3.869-6.528-17.264 3.665-35.344 3.561-52.592-.32zm-3.554 41.327c2.648-3.05 2.608-7.595-.094-10.597l-24.454-27.171c-.949-1.055-2.619-.099-2.332 1.205l8.443 38.318c1.415 6.421 9.542 8.489 13.853 3.524zm79.634 1.754 8.342-37.858c.468-2.123-2.234-3.577-3.7-1.892l-23.494 27.018c-2.616 3.009-2.618 7.485-.003 10.495l5.003 5.761c4.31 4.964 12.437 2.897 13.852-3.524zm-79.161-43.796c-2.877-.723-4.953 2.698-2.97 4.905l27.733 30.861c2.81 3.13 7.71 3.13 10.52 0l27.659-30.782c1.98-2.203-.087-5.621-2.962-4.907-19.071 4.738-39.927 4.965-59.98-.077zm192.123 95.326v47.26c0 4.42-3.58 8-8 8l-312.47-1.37c-2.195-1.392-3.69-3.882-3.69-6.74l.03-47.26c.04-45.63 36.97-82.51 82.57-82.51.47 0 .94-.01 1.4-.03 3.051-.119 6.098 1.842 7.05 5.56l13.18 60.03c1.412 6.434 9.648 8.541 13.97 3.57l22.85-26.32c2.91-3.35 7.91-3.65 11.2-.88 1.04 1.04-1.075-1.306 3.96 4.3 2.55 2.83 6.75 3.47 10.03 1.53 1-.59 1.12-.66 4.9-5.01 2.957-3.495 8.478-3.559 11.34-.72l23.52 27.13c4.315 4.971 12.55 2.886 13.98-3.56l13.06-59.29c.84-3.8 4.28-6.42 8.17-6.27 2.408.088 9.537.113 15.184 1.319 38.637 7.01 67.766 40.81 67.766 81.261zm-125.707-46.591c3.809 4.392 10.997 2.569 12.252-3.108 9.406-42.553 9.418-40.558 8.444-41.427-.701-.626-1.501-.494-1.968.027l-25 27.817c-2.385 2.654-2.421 6.668-.083 9.364zm-66.442-7.332c2.344-2.695 2.311-6.715-.077-9.371l-24.984-27.797c-.949-1.056-2.618-.1-2.332 1.203l8.812 40.123c1.247 5.679 8.432 7.512 12.248 3.125z"/></svg>